<svg id="Layer_1" xmlns="http://www.w3.org/2000/svg" width="311.462" height="175.019" viewBox="0 0 311.462 175.019"><style>.st0{fill:#85ad4a}.st1{fill:#b9e043}.st2{fill:#ff5959}.st3{fill:#f66}.st4{fill:#ff9d00}.st5{fill:#ffc117}.st6{fill:#fff}</style><g id="intrographic"><g id="taco"><path class="st5" d="M154.344 8.397c.085.012.165.03.25.042.258-1.499.303-3.005-.066-4.437-.229-.895-.682-2.157-1.107-2.613-.705-.754-1.059-1.081-1.727-1.256-1.14-.301-2.97-.183-4.521 1.325-2.411 2.342-3.674 5.644-4.891 8.721-.014.034-.033.061-.047.094.375.475.734.957 1.072 1.452 3.431-2.339 7.322-3.822 11.037-3.328zM53.94 43.432a25.879 25.879 0 0 1 10.647-.024v-.057a4.634 4.634 0 0 1-.8-1.083c-1.61-3.063-2.676-6.389-3.963-9.594-.941-2.351-2.364-6.812-4.812-8.118-.785.504-1.444 1.142-2.03 1.876-1.784 2.238-1.505 4.538-1.02 7.192.603 3.293 1.577 6.531 1.978 9.808z"/><path class="st0" d="M80.671 56.492c16.647-8.515 34.89-14.028 53.541-16.467-2.447-6.157-2.8-13.592.527-19.275a25.334 25.334 0 0 1 1.983-2.86 5.037 5.037 0 0 1-1.216-1.207c-3.207-4.462-9.588-7.864-15.115-5.907-3.526 1.248-5.239 4.26-6.908 7.404-3.486 6.567-7.412 12.343-14.662 15.024-5.653 2.09-11.75 2.158-17.466 3.961-5.901 1.861-5.811 5.736-7.427 10.373 3.004 2.237 5.4 5.241 6.743 8.954z"/><path class="st5" d="M253.463 46.198c.168-.292.36-.583.597-.873 1.774-2.189 4.059-11.563-1.005-11.441-4.126.1-6.467 3.672-9.344 6.144 1.914 2.503 3.191 5.378 3.824 8.443 1.856-1.072 3.88-1.868 5.928-2.273z"/><path class="st1" d="M53.357 74.458c5.796-4.833 11.974-9.174 18.438-13.043-2.37-4.747-5.365-9.169-11.546-9.207-7.708-.048-9.852 4.752-13.594 10.405-3.851 5.819-9.125 9.428-16.394 7.816-3.142-.696-11.571-2.71-11.598 2.657-.055 10.7 3.695 22.515-6.269 30.229-2.523 1.956-8.415 5.71-6.106 9.747 2.315 4.05 6.266 6.441 10.297 8.578 8.968-18.327 22.162-35 36.772-47.182z"/><path class="st0" d="M302.865 119.351c-.692-5.581-3.921-8.417-8.083-11.673-3.287-2.571-6.627-5.977-7.328-10.301-.432-2.671-.708-5.396-.162-8.081.457-2.245 1.816-4.103 2.357-6.25.882-3.505-12.081-3.708-14.197-4.297-4.414-1.23-9.857-3.399-11.804-7.998-1.307-3.088-1.165-7.406-2.909-10.17-3.508-5.561-8.402-3.37-13.348-1.992a27.799 27.799 0 0 1-2.332 6.488c7.573 5.165 14.639 11.065 20.98 17.729 12.385 13.019 21.927 28.542 28.244 45.299 4.471-1.212 9.266-3.245 8.582-8.754z"/><path class="st2" d="M308.118 133.384c-.228-.014-.43-.061-.641-.099-2.782 2.421-6.124 4.043-9.733 5.24.47 1.624.901 3.261 1.313 4.902 3.283-.297 6.678-.209 9.504-1.808 3.221-1.822 4.635-7.959-.443-8.235zM1.596 134.792c2.338 1.877 5.368 2.553 8.331 3.121a124.32 124.32 0 0 1 2.005-5.633c-2.79-.905-5.492-2.336-7.924-4.131-2.772 1.72-6.015 3.751-2.412 6.643z"/><path class="st1" d="M147.398 23.053c-4.856 4.715-3.821 10.173-2.167 15.895 18.221-1.189 36.605.537 54.062 5.277 13.076 3.551 25.782 8.776 37.51 15.634 1.878-4.439 2.624-9.662-.302-13.72-4.76-6.6-12.172-3.976-18.9-5.101-6.525-1.091-9.639-5.887-13.152-10.918-4.026-5.771-8.902-5.672-14.768-3.114-5.193 2.266-10.713 4.455-16.486 3.121-5.506-1.273-9.627-4.055-13.972-7.545-4.342-3.489-7.451-3.779-11.825.471z"/><path id="shell" class="st5" d="M249.526 85.609c-39.303-34.688-97.743-41.866-146.275-24.317-22.725 8.219-43.151 22.199-58.007 41.381-7.079 9.139-13.089 19.567-17.333 30.323-3.87 9.807-6.17 19.797-8.44 29.953 13.827 7.023 30.101 6.75 45.269 8.139 25.625 2.352 51.32 3.912 77.058 3.932 26.48.021 52.961-1.219 79.305-3.963 12.568-1.311 25.02-3.25 37.541-4.893 10.266-1.348 20.527-2.596 30.523-5.268-5.95-28.815-17.016-55.321-39.641-75.287z"/></g><g id="frescodev"><path class="st6" d="M78.185 104.926l-1.534-.055c-1.534 0-2.301.432-2.301 1.295 0 1.836.153 4.554.46 8.153.307 3.599.46 6.317.46 8.153.491 0 1.197-.11 2.117-.33.92-.221 1.569-.331 1.948-.331.378 0 .665.129.859.386.194.258.292.505.292.744 0 .459-.435.743-1.304.854-.87.11-1.739.202-2.608.275-.87.073-1.304.294-1.304.661 0 2.13.199 5.302.598 9.517.399 4.214.599 7.377.599 9.488l-.184.304c.123.275.184.551.184.826 0 .643-.46.964-1.381.964-.716 0-1.074-1.276-1.074-3.829l.061-1.817c0-1.91-.133-4.752-.399-8.525-.266-3.773-.399-6.605-.399-8.497 0-10.907-.398-16.811-1.196-17.71v-.358c0-1.34 2.076-2.011 6.229-2.011.695 0 1.043.432 1.043 1.294 0 .366-.389.549-1.166.549zm8.53-.551l-.123-1.019c0-.331.419-.496 1.258-.496 1.718 0 3.032.432 3.942 1.295.91.863 1.514 1.79 1.811 2.782.296.992.526 1.745.69 2.259.347 1.12.521 1.993.521 2.617 0 1.891-.583 4.168-1.749 6.831-.757 1.69-1.135 2.626-1.135 2.81 0 1.836.818 5.541 2.455 11.113 1.636 5.573 2.976 9.526 4.02 11.857 0 1.23-.276 1.846-.829 1.846-.429 0-.782-.17-1.059-.51-.276-.339-.445-.537-.506-.592-.123-1.469-.66-3.512-1.611-6.129-.951-2.616-1.534-4.36-1.749-5.233-.215-.871-.599-2.648-1.151-5.329s-1.043-4.737-1.473-6.17l-.491-.331-1.197.441v21.153l.123 1.404c0 .753-.378 1.13-1.135 1.13-.307 0-.563-.088-.767-.262a.845.845 0 0 1-.307-.675l.215-.303.245-34.237v-6.252zm1.749.276l-.307 12.312c0 1.616.062 2.819.184 3.608h.123c.307 0 .854-.386 1.642-1.157.787-.771 1.33-1.386 1.626-1.846.296-.458.537-1.221.721-2.286.184-1.064.276-1.951.276-2.658s-.057-1.446-.169-2.217a21.243 21.243 0 0 0-.537-2.507c-.246-.899-.634-1.647-1.166-2.245-.532-.597-1.156-.895-1.872-.895v-.166l-.521.057zm18.778 39.388l3.774-.193c1.964 0 2.946.303 2.946.909-.348.551-.972.904-1.872 1.061-.9.155-1.77.233-2.608.233h-1.473c-1.882 0-2.966-.133-3.252-.399-.287-.266-.43-.546-.43-.84l.583-2.093v-.11a11.656 11.656 0 0 1-.246-2.479l.307-5.756-.368-12.064.307-11.21c0-.679-.133-1.685-.399-3.016s-.409-2.309-.429-2.934l1.135-1.57 4.387-.496.215.165c.982 0 1.55.115 1.703.344.153.23.23.473.23.73 0 .716-.757 1.074-2.271 1.074l-1.688-.11c-.92 0-1.381.22-1.381.661l.491 9.585-.307 7.051-.123.11.368.192 3.467-.578c.225 0 .47.105.736.316.266.212.399.427.399.647 0 .753-.317 1.129-.951 1.129l-1.442-.055c-1.595 0-2.393.358-2.393 1.074l.46 4.737-.215.331v11.458c.225.239.337.762.337 1.57v.526zm21.263-17.381l-.061.221c0 .019.48 1.469 1.442 4.352.634 2.241.951 3.967.951 5.179s-.159 2.396-.476 3.553a14.527 14.527 0 0 1-1.381 3.333 7.586 7.586 0 0 1-2.485 2.631c-1.054.688-2.066 1.032-3.038 1.032s-1.662-.019-2.071-.055c-1.208-.11-2.056-.561-2.547-1.35 0-.459.22-.688.66-.688.439 0 1.033.143 1.78.427.747.285 1.458.427 2.132.427s1.396-.349 2.163-1.047c.767-.697 1.355-1.561 1.764-2.589.818-2.094 1.228-4.054 1.228-5.881s-.307-3.686-.92-5.577-1.366-3.617-2.255-5.179a959.758 959.758 0 0 1-2.654-4.683c-2.107-3.708-3.161-7.216-3.161-10.521 0-2.736.92-4.921 2.762-6.555 1.002-.863 2.178-1.294 3.528-1.294.43 0 .982.151 1.657.454.675.303 1.084.62 1.228.95l-.368.634c-.941 0-1.626-.193-2.056-.579-1.002 0-1.862.34-2.578 1.019-1.35 1.249-2.025 2.883-2.025 4.903 0 1.487.133 2.723.399 3.705.266.983.47 1.731.614 2.245.143.514.399 1.166.767 1.956s.639 1.377.813 1.763c.173.385.511 1.019 1.012 1.901.501.881.829 1.45.982 1.707.153.258.532.878 1.135 1.859.604.981.956 1.564 1.059 1.747zm10.555-8.703l-.553 4.077c0 2.222.276 5.932.829 11.128s1.113 8.189 1.688 8.979c1.104 1.524 2.756 2.286 4.955 2.286s3.809-.541 4.832-1.625c.389 0 .869-.063 1.443-.192l.307.303c0 1.8-1.596 2.975-4.787 3.525-.758.129-1.611.193-2.563.193s-2.07-.423-3.359-1.268c-1.289-.844-2.199-1.78-2.73-2.81-.533-1.027-1.055-4.223-1.565-9.585-.511-5.361-.767-10.081-.767-14.157 0-4.077.133-6.482.398-7.217a8.393 8.393 0 0 1-.215-1.818c0-2.258.9-4.017 2.7-5.274s4.009-1.887 6.628-1.887c.715 0 1.498.202 2.348.606.848.404 1.273.9 1.273 1.487 0 .422-.328.633-.982.633-.184 0-.439-.114-.768-.344-.326-.229-.598-.344-.813-.344s-.445.037-.691.11a5.207 5.207 0 0 0-1.502-.221c-.512 0-1.131.097-1.857.29s-1.33.44-1.811.744c-.48.303-.889.712-1.227 1.226a8.083 8.083 0 0 0-.783 1.474c-.184.468-.326 1.07-.429 1.804-.123 1.046-.185 2.341-.185 3.884l.186 3.993zm34.119 10.741l-.583 7.271.122.221c-.327 1.268-.49 2.406-.49 3.416s-.226 2.052-.676 3.126a8.565 8.565 0 0 1-2.009 2.892c-.891.854-1.847 1.281-2.869 1.281-1.023 0-1.975-.35-2.854-1.047-.88-.697-1.611-1.593-2.194-2.686-.583-1.092-1.094-2.387-1.534-3.884a38.655 38.655 0 0 1-1.027-4.407 71.545 71.545 0 0 1-.614-4.476c-.245-2.57-.368-4.797-.368-6.68 0-1.882.093-4.025.276-6.431.185-2.405.286-3.957.307-4.655.021-.698.041-1.313.062-1.846.021-.532.071-1.17.153-1.914s.189-1.396.322-1.956.332-1.134.599-1.722c.266-.587.593-1.074.981-1.459.859-.863 2.061-1.295 3.605-1.295s2.817.377 3.82 1.129c.143.202.517.652 1.12 1.35.603.698 1.053 1.363 1.35 1.997.296.633.629 2.189.997 4.668 1.002 6.43 1.504 12.132 1.504 17.107zm-8.683-24.789c-3.089 0-4.633 5.573-4.633 16.719v2.204c0 2.607.22 5.412.659 8.414.439 3.003.9 5.44 1.381 7.313s1.155 3.471 2.025 4.792c.869 1.322 1.836 1.983 2.899 1.983 1.432 0 2.475-1.309 3.13-3.925.654-2.617 1.043-4.944 1.166-6.982.143-2.791.215-4.608.215-5.454v-1.35c0-.697-.006-1.289-.016-1.776a613.97 613.97 0 0 1-.046-2.396 57.99 57.99 0 0 0-.123-2.96c-.062-.864-.144-1.91-.245-3.141a31.93 31.93 0 0 0-.43-3.292c-.185-.964-.395-1.992-.629-3.085-.235-1.092-.521-2.034-.859-2.823a15.734 15.734 0 0 0-1.15-2.204c-.88-1.357-1.994-2.037-3.344-2.037z"/><path class="st3" d="M181.34 137.483l.062-2.259c0-2.203-.144-4.765-.43-7.685s-.46-4.737-.521-5.454c-.184-.349-.286-2.704-.307-7.065-.021-4.361-.066-6.78-.138-7.258-.072-.477-.246-1.046-.521-1.708-.276-.661-.415-1.185-.415-1.57 0-.899 1.575-1.35 4.726-1.35h.307c1.596 0 3.313.79 5.155 2.369 1.841 1.58 3.042 3.002 3.604 4.269s.937 2.787 1.12 4.559c.185 1.772.312 3.393.384 4.861.071 1.469.209 2.397.414 2.782l-.123 1.516.185.275-.185.468.185.275c-.245.35-.368.873-.368 1.57 0 .698-.041 1.341-.123 1.928a14.575 14.575 0 0 1-.245 1.378c-.082.33-.22.821-.414 1.473a143.59 143.59 0 0 0-.875 3.127c-1.146 4.04-3.048 7.023-5.707 8.951-2.659 1.929-4.229 2.893-4.71 2.893s-.972-.097-1.473-.289c-.501-.193-.782-.473-.844-.841.593-.679.921-1.432.982-2.258l.275-4.957zm.185-31.703l.552 9.365c0 2.424.158 6.018.476 10.784.317 4.765.476 7.987.476 9.668 0 1.68-.041 3.53-.122 5.55l.122.221v1.598h.308c1.574-.753 2.966-1.832 4.173-3.237 1.206-1.404 2.143-2.873 2.808-4.406a29.926 29.926 0 0 0 1.641-5.027c.676-2.975 1.013-5.857 1.013-8.648 0-10.999-3.375-16.499-10.125-16.499-.842-.003-1.281.209-1.322.631zm22.674 38.259l3.774-.193c1.964 0 2.945.303 2.945.909-.348.551-.972.904-1.871 1.061-.9.155-1.77.233-2.608.233h-1.473c-1.882 0-2.966-.133-3.253-.399-.286-.266-.429-.546-.429-.84l.583-2.093v-.11a11.656 11.656 0 0 1-.246-2.479l.307-5.756-.368-12.064.308-11.21c0-.679-.134-1.685-.399-3.016-.266-1.331-.409-2.309-.43-2.934l1.136-1.57 4.388-.496.215.165c.981 0 1.549.115 1.702.344.154.23.23.473.23.73 0 .716-.757 1.074-2.271 1.074l-1.688-.11c-.921 0-1.381.22-1.381.661l.491 9.585-.307 7.051-.123.11.368.192 3.467-.578c.226 0 .471.105.736.316.266.212.399.427.399.647 0 .753-.317 1.129-.951 1.129l-1.442-.055c-1.596 0-2.394.358-2.394 1.074l.461 4.737-.215.331v11.458c.225.239.337.762.337 1.57v.526zm20.65 2.176c-.144 0-.46-.074-.951-.221-.757-2.735-1.841-8.3-3.252-16.691s-2.48-14.552-3.207-18.482c-.726-3.929-1.334-6.308-1.825-7.134.143-.404.563-.606 1.258-.606.675 0 1.115.679 1.319 2.038.041.184.204.974.491 2.369.286 1.396 1.048 5.963 2.286 13.704 1.237 7.739 2.397 13.693 3.482 17.861.225-1.102.394-2.176.506-3.223.112-1.046.599-4.884 1.458-11.513 1.554-11.991 2.331-18.775 2.331-20.355v-.22c.614-.551 1.136-.827 1.565-.827l.368.221h-.123l.645.44c0 .79-.148 1.956-.445 3.498-.296 1.542-.444 2.709-.444 3.498-.43.698-1.238 6.064-2.424 16.099-1.187 10.036-1.801 16.137-1.841 18.303-.348.828-.747 1.241-1.197 1.241zm-.398-6.996l-.123.138h.215l-.092-.138z"/></g><path class="st4" d="M62.8 131.677c-9.985 0-9.985 15.483 0 15.483s9.986-15.483 0-15.483zm34.579-40.566c-6.203 0-6.203 9.619 0 9.619s6.203-9.619 0-9.619zm7.28 24.863c-5.824 0-5.824 9.032 0 9.032s5.824-9.032 0-9.032zm36.398-25.27c-11.421 0-11.421 17.712 0 17.712 11.423 0 11.423-17.712 0-17.712zm-5.459 46.991c-10.439 0-10.439 16.188 0 16.188s10.44-16.188 0-16.188zm28.209-21.283c-8.548 0-8.548 13.254 0 13.254s8.548-13.254 0-13.254zm38.219-33.928c-10.289 0-10.289 15.953 0 15.953 10.287.001 10.287-15.953 0-15.953zm1.819 35.628c-6.354 0-6.354 9.854 0 9.854s6.355-9.854 0-9.854zm-12.74 32.377c-5.672 0-5.672 8.798 0 8.798 5.674 0 5.674-8.798 0-8.798zm40.949-11.034c-10.515 0-10.515 16.306 0 16.306s10.515-16.306 0-16.306zm4.55-36.017c-8.85 0-8.85 13.725 0 13.725 8.851-.001 8.851-13.725 0-13.725zM68.26 106.14c-5.598 0-5.598 8.681 0 8.681 5.598-.001 5.598-8.681 0-8.681zm55.509-36.835c-9.683 0-9.683 15.014 0 15.014s9.682-15.014 0-15.014zm-21.84 76.666c-9.153 0-9.153 14.193 0 14.193s9.153-14.193 0-14.193zm70.068-78.253c-9.381 0-9.381 14.546 0 14.546 9.379 0 9.379-14.546 0-14.546zm0 83.948h-.59c-3.74 0-6.862 3.121-6.862 6.861 0 3.741 3.122 6.862 6.862 6.862h.59c3.741 0 6.862-3.121 6.862-6.862 0-3.74-3.121-6.861-6.862-6.861zm-32.879-31.629l-.004-.008c-.427-.728-1.061-1.239-1.808-1.568a5.088 5.088 0 0 0-2.571-.691c-.975 0-1.936.292-2.77.789-1.637.978-2.672 2.744-2.672 4.66 0 2.399 1.646 4.566 3.961 5.203 2.334.642 4.872-.394 6.094-2.48.99-1.692 1.02-4.274-.23-5.905zm31.059-23.585c-6.354 0-6.354 9.854 0 9.854s6.354-9.854 0-9.854zm14.56 15.583c-5.976 0-5.976 9.268 0 9.268s5.975-9.268 0-9.268z" id="tacodots"/></g></svg>